<svg width="2852" height="405" viewBox="0 0 2852 405" fill="none" xmlns="http://www.w3.org/2000/svg">
<path d="M775.845 325.656C834.453 325.656 881.718 292.324 898.158 239.017H818.075C810.348 252.683 794.648 260.923 775.845 260.923C750.424 260.923 733.409 247.073 728.169 220.275H901.611C902.659 213.042 903.275 206.014 903.275 198.965C903.275 130.431 851.14 76.6926 775.845 76.6926C702.522 76.6926 648.948 129.383 648.948 201C648.948 272.37 702.954 325.656 775.845 325.656V325.656ZM824.014 175.702H729.566C736.08 152.502 752.377 139.761 775.845 139.761C800.114 139.761 816.945 152.358 824.014 175.723V175.702ZM1048.95 325.635C1076.08 325.635 1100.33 316.717 1119.44 301.222L1126.35 317.744H1188.55V84.1111H1128.56L1120.34 102.195C1101.03 86.2689 1076.47 77.083 1048.95 77.083C977.522 77.083 926.456 128.561 926.456 200.917C926.456 273.52 977.522 325.656 1048.95 325.656V325.635ZM1059.72 254.388C1029.58 254.388 1007.42 231.619 1007.42 201.102C1007.42 170.791 1029.39 148.022 1059.72 148.022C1089.85 148.022 1112 170.791 1112 201.102C1112 231.619 1089.85 254.388 1059.72 254.388ZM1329.4 325.635C1391.46 325.635 1432.66 293.701 1432.66 244.874C1432.66 185.628 1383.61 177.963 1346.7 171.408C1324.51 167.441 1306.63 164.338 1306.63 151.063C1306.63 140.233 1315.3 133.842 1328.21 133.842C1342.8 133.842 1352.81 140.767 1352.81 155.687H1428.16C1427.26 108.36 1388.71 76.7131 1329.19 76.7131C1269.35 76.7131 1229.44 106.922 1229.44 153.776C1229.44 210.432 1277.47 221.365 1313.7 227.221C1336.14 230.941 1353.81 234.784 1353.81 248.265C1353.81 260.327 1342.65 266.349 1330.88 266.349C1315.63 266.349 1303.75 258.478 1303.75 241.401H1226.28C1227.02 292.015 1265.72 325.656 1329.4 325.656V325.635ZM1495.85 404.917C1556.19 404.917 1585.12 379.086 1616.63 307.592L1714.53 84.3577H1628.09L1581.88 213.062L1532.31 84.3577H1444.87L1541.41 298.694C1530.52 327.752 1521.21 335.766 1490.45 335.766H1468.3V404.917H1495.85ZM1876.11 325.635C1948.04 325.635 1998.86 273.952 1998.86 201.349C1998.86 128.746 1948.06 77.0625 1876.11 77.0625C1855.64 76.9028 1835.52 82.4842 1818.06 93.1737V0H1738.53V317.991H1798.06L1805.67 300.646C1824.63 316.491 1848.86 325.635 1876.11 325.635ZM1865.36 254.388C1835.22 254.388 1813.06 231.619 1813.06 201.369C1813.06 170.832 1835.22 148.063 1865.36 148.063C1895.49 148.063 1917.64 170.832 1917.64 201.349C1917.64 231.619 1895.31 254.368 1865.36 254.368V254.388ZM2144.8 325.635C2171.93 325.635 2196.18 316.717 2215.29 301.222L2222.19 317.744H2284.4V84.1111H2224.43L2216.19 102.195C2196.9 86.2689 2172.32 77.083 2144.8 77.083C2073.37 77.083 2022.33 128.561 2022.33 200.917C2022.33 273.52 2073.37 325.656 2144.8 325.656V325.635ZM2155.57 254.388C2125.42 254.388 2103.27 231.619 2103.27 201.102C2103.27 170.791 2125.26 148.022 2155.57 148.022C2185.72 148.022 2207.87 170.791 2207.87 201.102C2207.87 231.619 2185.72 254.388 2155.57 254.388ZM2415.59 317.991V193.232C2415.59 163.496 2430.02 145.967 2455.11 145.967C2475.37 145.967 2485.58 159.468 2485.58 186.656V317.97H2566.04V175.559C2566.04 116.025 2530.42 77.4735 2476.17 77.4735C2445.96 77.4735 2420.01 89.0842 2402.6 108.463L2391.57 84.3783H2335.12V318.011H2415.59V317.991ZM2698.11 317.991V219.186L2756.64 317.991H2851.5L2771.31 195.718L2844.12 84.3577H2753.76L2698.11 175.887V0H2617.64V317.991H2698.11V317.991Z" fill="white"/>
<path fill-rule="evenodd" clip-rule="evenodd" d="M221.981 0L0 404.917H123.012L345.014 0H221.981Z" fill="url(#paint0_linear_61_4)"/>
<path opacity="0.5" fill-rule="evenodd" clip-rule="evenodd" d="M373.414 0L151.413 404.917H274.425L496.427 0H373.414Z" fill="url(#paint1_linear_61_4)"/>
<path opacity="0.15" fill-rule="evenodd" clip-rule="evenodd" d="M524.826 0L302.845 404.917H425.858L647.839 0H524.826Z" fill="url(#paint2_linear_61_4)"/>
<defs>
<linearGradient id="paint0_linear_61_4" x1="249.083" y1="-1.46721e-05" x2="9.95399" y2="372.545" gradientUnits="userSpaceOnUse">
<stop stop-color="#33D35E"/>
<stop offset="1" stop-color="#2AB6D9"/>
</linearGradient>
<linearGradient id="paint1_linear_61_4" x1="400.495" y1="-1.46721e-05" x2="161.367" y2="372.545" gradientUnits="userSpaceOnUse">
<stop stop-color="#33D35E"/>
<stop offset="1" stop-color="#2AB6D9"/>
</linearGradient>
<linearGradient id="paint2_linear_61_4" x1="551.913" y1="-1.46721e-05" x2="312.779" y2="372.532" gradientUnits="userSpaceOnUse">
<stop stop-color="#33D35E"/>
<stop offset="1" stop-color="#2AB6D9"/>
</linearGradient>
</defs>
</svg>
